<?xml version="1.0" encoding="UTF-8" standalone="no"?>
<!-- Created with Inkscape (http://www.inkscape.org/) -->

<svg
   xmlns:dc="http://purl.org/dc/elements/1.1/"
   xmlns:cc="http://creativecommons.org/ns#"
   xmlns:rdf="http://www.w3.org/1999/02/22-rdf-syntax-ns#"
   xmlns:svg="http://www.w3.org/2000/svg"
   xmlns="http://www.w3.org/2000/svg"
   xmlns:sodipodi="http://sodipodi.sourceforge.net/DTD/sodipodi-0.dtd"
   xmlns:inkscape="http://www.inkscape.org/namespaces/inkscape"
   width="744.09448819"
   height="1052.3622047"
   id="svg2"
   version="1.1"
   inkscape:version="0.48.4 r9939"
   sodipodi:docname="glider.eps">
  <sodipodi:namedview
     id="base"
     pagecolor="#ffffff"
     bordercolor="#666666"
     borderopacity="1.0"
     inkscape:pageopacity="0.0"
     inkscape:pageshadow="2"
     inkscape:zoom="2"
     inkscape:cx="422.14038"
     inkscape:cy="627.16343"
     inkscape:document-units="px"
     inkscape:current-layer="layer1"
     showgrid="false"
     inkscape:snap-bbox="true"
     inkscape:window-width="1920"
     inkscape:window-height="1014"
     inkscape:window-x="0"
     inkscape:window-y="27"
     inkscape:window-maximized="1" />
  <defs
     id="defs4">
    <marker
       style="overflow:visible;"
       id="Arrow1Lend"
       refX="0.0"
       refY="0.0"
       orient="auto"
       inkscape:stockid="Arrow1Lend">
      <path
         transform="scale(0.8) rotate(180) translate(12.5,0)"
         style="fill-rule:evenodd;stroke:#000000;stroke-width:1.0pt;"
         d="M 0.0,0.0 L 5.0,-5.0 L -12.5,0.0 L 5.0,5.0 L 0.0,0.0 z "
         id="path3789" />
    </marker>
    <marker
       style="overflow:visible"
       id="Arrow1Lend-0"
       refX="0"
       refY="0"
       orient="auto"
       inkscape:stockid="Arrow1Lend">
      <path
         transform="matrix(-0.8,0,0,-0.8,-10,0)"
         style="fill-rule:evenodd;stroke:#000000;stroke-width:1pt"
         d="M 0,0 5,-5 -12.5,0 5,5 0,0 z"
         id="path3789-6"
         inkscape:connector-curvature="0" />
    </marker>
    <marker
       style="overflow:visible"
       id="Arrow1Lend-0O"
       refX="0"
       refY="0"
       orient="auto"
       inkscape:stockid="Arrow1Lend-0O">
      <path
         transform="matrix(-0.8,0,0,-0.8,-10,0)"
         style="stroke:#ff0000;stroke-width:1pt;fill:#ff0000;fill-rule:evenodd"
         d="M 0,0 5,-5 -12.5,0 5,5 0,0 z"
         id="path4606"
         inkscape:connector-curvature="0" />
    </marker>
    <marker
       style="overflow:visible"
       id="Arrow1Lend-0O-9"
       refX="0"
       refY="0"
       orient="auto"
       inkscape:stockid="Arrow1Lend-0O">
      <path
         transform="matrix(-0.8,0,0,-0.8,-10,0)"
         style="fill:#ff0000;fill-rule:evenodd;stroke:#ff0000;stroke-width:1pt"
         d="M 0,0 5,-5 -12.5,0 5,5 0,0 z"
         id="path4606-2"
         inkscape:connector-curvature="0" />
    </marker>
    <marker
       style="overflow:visible"
       id="Arrow1Lend-0e"
       refX="0"
       refY="0"
       orient="auto"
       inkscape:stockid="Arrow1Lend-0e">
      <path
         transform="matrix(-0.8,0,0,-0.8,-10,0)"
         style="stroke:#00ff00;stroke-width:1pt;fill:#00ff00;fill-rule:evenodd"
         d="M 0,0 5,-5 -12.5,0 5,5 0,0 z"
         id="path4750"
         inkscape:connector-curvature="0" />
    </marker>
    <marker
       style="overflow:visible"
       id="Arrow1Lend-0ew"
       refX="0"
       refY="0"
       orient="auto"
       inkscape:stockid="Arrow1Lend-0ew">
      <path
         transform="matrix(-0.8,0,0,-0.8,-10,0)"
         style="fill-rule:evenodd;stroke:#00d300;stroke-width:1pt;fill:#00d300"
         d="M 0,0 5,-5 -12.5,0 5,5 0,0 z"
         id="path4809"
         inkscape:connector-curvature="0" />
    </marker>
  </defs>
  <metadata
     id="metadata7">
    <rdf:RDF>
      <cc:Work
         rdf:about="">
        <dc:format>image/svg+xml</dc:format>
        <dc:type
           rdf:resource="http://purl.org/dc/dcmitype/StillImage" />
        <dc:title></dc:title>
      </cc:Work>
    </rdf:RDF>
  </metadata>
  <g
     style="display:inline"
     id="layer1"
     inkscape:groupmode="layer"
     inkscape:label="Layer 1">
    <g
       id="g5495">
      <g
         id="g4462"
         transform="matrix(0.66707693,-0.0507433,0.04104062,0.53952447,109.9981,217.42782)">
        <g
           style="fill:#141414;fill-opacity:0.24313725"
           transform="matrix(0.98161675,-0.19086268,0.19086268,0.98161675,-131.48937,-9.5564537)"
           id="g4265">
          <path
             style="fill:#141414;fill-opacity:0.24313725;stroke:#000000;stroke-width:1.13478112px;stroke-linecap:butt;stroke-linejoin:miter;stroke-opacity:1"
             d="m 117.64673,534.83725 c 6.58544,8.45519 27.90129,16.668 27.90129,16.668 0,0 25.77823,-0.42419 32.16408,-4.09744 55.11879,-12.38204 202.0788,-22.64151 263.40008,1.37467 44.27154,11.22686 144.93138,8.89326 166.25307,4.57687 21.3217,-4.3164 45.64002,-9.31444 57.43531,-15.29851 34.74636,-17.62778 22.86115,-20.87038 22.86115,-20.87038 0,0 -30.47198,-30.39744 -59.85207,-39.27505 -31.00584,-9.36884 -51.76776,-11.99348 -71.11317,-12.38878 -19.3454,-0.39529 -75.65445,9.39153 -99.14854,18.75867 -17.97557,7.1669 -64.09336,22.46359 -97.23678,23.00898 -33.14344,0.54539 -74.8822,1.29183 -108.62508,2.50112 -36.81429,1.31943 -47.77991,6.49529 -59.28558,-21.14696 -11.50568,-27.64224 -6.41615,-54.13032 -18.39634,-54.64681 -11.9802,-0.51648 -63.53665,0.33191 -63.53665,0.33191 z"
             id="path2989"
             inkscape:connector-curvature="0"
             sodipodi:nodetypes="cccczscssssssscc" />
          <path
             style="fill:#141414;fill-opacity:0.24313725;stroke:#000000;stroke-width:1.11117518px;stroke-linecap:butt;stroke-linejoin:miter;stroke-opacity:1"
             d="m 418.62702,516.63822 26.56825,-7.11323 c 0,0 24.79703,-6.40193 38.08117,-7.82457 13.28413,-1.42265 35.23148,-0.93411 44.28041,2.8453 9.04893,3.77941 24.75293,8.19945 9.29889,14.9378 -15.45405,6.73835 -23.46862,8.18021 -47.82286,8.18022 -23.09384,1e-5 -16.90905,0.0482 -41.18078,-4.62361 -20.9545,-4.03334 -29.22508,-6.40191 -29.22508,-6.40191 z"
             id="path3026"
             inkscape:connector-curvature="0"
             sodipodi:nodetypes="ccszzssc" />
          <path
             style="fill:#141414;fill-opacity:0.24313725;stroke:#000000;stroke-width:1px;stroke-linecap:butt;stroke-linejoin:miter;stroke-opacity:1"
             d="m 662.28715,496.01169 c 0,0 -21.85044,6.82751 -35.99257,6.32243 -14.14214,-0.50507 -36.87057,-1.01015 -36.87057,-1.01015 0,0 -26.76904,-0.50508 -41.92133,-3.03046 -15.15229,-2.52538 -24.70981,-29.0554 -24.70981,-29.0554"
             id="path3030"
             inkscape:connector-curvature="0"
             sodipodi:nodetypes="cscsc" />
        </g>
        <path
           transform="matrix(1.4904532,0.14017995,-0.11337599,1.8428208,-139.29592,-416.10004)"
           inkscape:connector-curvature="0"
           id="path4945"
           d="m 460.31173,378.80228 c 0,-2.37996 0.005,-2.541 0.0781,-2.56285 0.3194,-0.0954 4.28921,-0.89446 5.9933,-1.20643 10.04242,-1.83851 19.85607,-2.77918 32.18729,-3.08525 3.0366,-0.0754 10.44956,-0.088 11.87314,-0.0202 6.47377,0.30822 13.53474,1.52536 21.60921,3.72491 l 0.2009,0.0547 -0.26786,0.0301 c -0.14732,0.0166 -16.23884,1.27426 -35.75893,2.79486 -19.52009,1.5206 -35.5865,2.77484 -35.70313,2.78719 l -0.21205,0.0225 0,-2.53953 z"
           style="fill:#808080;fill-opacity:0.42745097999999998;fill-rule:nonzero;stroke:none" />
        <path
           transform="matrix(1.4904532,0.14017995,-0.11337599,1.8428208,-139.29592,-416.10004)"
           inkscape:connector-curvature="0"
           id="path4947"
           d=""
           style="fill:#808080;fill-opacity:0.42745098;fill-rule:nonzero;stroke:none" />
        <path
           transform="matrix(1.4904532,0.14017995,-0.11337599,1.8428208,-139.29592,-416.10004)"
           inkscape:connector-curvature="0"
           id="path4949"
           d="m 460.31778,379.86164 c 0.003,-0.79185 0.0184,-1.92143 0.0335,-2.51018 l 0.0274,-1.07044 0.13393,-0.0406 c 0.0737,-0.0223 0.16407,-0.051 0.2009,-0.0639 0.0368,-0.0128 0.0808,-0.0205 0.0977,-0.0171 0.0426,0.009 1.29302,-0.25533 1.37551,-0.29029 0.0368,-0.0156 0.0796,-0.026 0.0951,-0.0231 0.0155,0.003 0.46748,-0.0821 1.00447,-0.1889 0.53699,-0.10681 1.5288,-0.29888 2.20402,-0.42681 0.67523,-0.12793 1.25781,-0.24382 1.29465,-0.25752 0.0368,-0.0137 0.0816,-0.0219 0.0996,-0.0181 0.0475,0.01 1.87483,-0.30526 1.95402,-0.337 0.0368,-0.0148 0.088,-0.0237 0.11372,-0.0199 0.0257,0.004 0.31701,-0.0432 0.64732,-0.10435 0.33031,-0.0612 0.67088,-0.11874 0.75681,-0.12785 0.30211,-0.0321 2.70168,-0.39306 2.76786,-0.41642 0.0368,-0.013 0.12723,-0.0289 0.20089,-0.0353 0.33368,-0.0291 2.01596,-0.25462 2.0759,-0.27831 0.0368,-0.0146 0.0971,-0.0233 0.13393,-0.0195 0.0368,0.004 0.59933,-0.0643 1.25,-0.15136 0.65066,-0.0871 1.22173,-0.15848 1.26903,-0.15859 0.0473,-1.2e-4 0.81069,-0.0794 1.69643,-0.17616 0.88573,-0.0968 1.7611,-0.18765 1.94525,-0.20195 0.18415,-0.0143 0.50558,-0.0448 0.71429,-0.0677 0.2087,-0.0229 0.42315,-0.0419 0.47655,-0.0422 0.0534,-3e-4 0.78667,-0.0618 1.62947,-0.13676 0.8428,-0.0749 1.57938,-0.1349 1.63684,-0.13331 0.0575,0.002 0.85681,-0.0472 1.77635,-0.10848 0.91954,-0.0612 2.72074,-0.16085 4.00267,-0.22133 1.28194,-0.0605 2.54173,-0.12019 2.79954,-0.13268 0.25782,-0.0125 0.73996,-0.0289 1.07143,-0.0365 0.33148,-0.008 1.01451,-0.0265 1.51786,-0.042 0.50335,-0.0155 1.45759,-0.0403 2.12054,-0.055 1.43779,-0.032 10.63985,-0.0318 11.18303,2.4e-4 1.04519,0.0617 2.37093,0.16289 3.41518,0.26067 0.63839,0.0598 1.19085,0.10973 1.22768,0.11103 0.0368,0.001 0.19754,0.0237 0.35714,0.0498 0.1596,0.0261 0.33468,0.0395 0.38907,0.0297 0.0544,-0.01 0.10461,-0.005 0.11161,0.0114 0.0178,0.0409 1.58615,0.23794 1.63818,0.20578 0.0234,-0.0144 0.0559,-0.005 0.0723,0.022 0.0164,0.0265 0.0831,0.0427 0.1482,0.0359 0.0651,-0.007 0.14191,0.002 0.17068,0.0199 0.0288,0.0178 0.15935,0.0403 0.29016,0.0501 0.1308,0.01 0.26796,0.0296 0.30479,0.044 0.0368,0.0144 0.16741,0.0313 0.29018,0.0375 0.12277,0.006 0.23425,0.0261 0.24773,0.0441 0.0135,0.018 0.14891,0.0381 0.30096,0.0447 0.15205,0.007 0.27662,0.0246 0.27683,0.0402 0,0.0156 0.11589,0.043 0.25707,0.0608 0.14118,0.0179 0.31696,0.0405 0.39062,0.0504 0.0737,0.01 0.54576,0.0977 1.04911,0.19538 0.50335,0.0976 0.93965,0.16857 0.96955,0.15763 0.0299,-0.0109 0.0642,-0.004 0.0761,0.0153 0.012,0.0193 0.16829,0.0609 0.34741,0.0922 0.46463,0.0813 3.105,0.64665 3.88701,0.83221 0.36276,0.0861 0.67745,0.14545 0.69931,0.13193 0.0219,-0.0135 0.0465,-0.007 0.0547,0.0143 0.008,0.0214 0.28617,0.10227 0.61765,0.17979 1.14175,0.26701 3.94997,1.00963 3.86123,1.02108 -0.0489,0.006 -13.72954,1.07635 -30.40141,2.37786 -16.67188,1.30151 -32.75037,2.55695 -35.72998,2.78986 -2.97962,0.23292 -5.46567,0.42348 -5.52456,0.42348 l -0.10707,0 0.006,-1.43973 z"
           style="fill:#808080;fill-opacity:0.42745098;fill-rule:nonzero;stroke:none" />
        <path
           transform="matrix(1.4904532,0.14017995,-0.11337599,1.8428208,-139.29592,-416.10004)"
           inkscape:connector-curvature="0"
           id="path4951"
           d="m 491.87141,378.88214 c 0,-0.005 0.002,-0.009 0.004,-0.009 0.004,0 0.31873,-0.0245 1.6832,-0.13086 0.37275,-0.0291 0.89131,-0.0695 1.15234,-0.0898 0.26104,-0.0203 0.58711,-0.0457 0.72461,-0.0565 0.1375,-0.0107 0.39678,-0.031 0.57617,-0.0449 0.1794,-0.014 0.4958,-0.0386 0.70313,-0.0548 0.20732,-0.0162 0.45517,-0.0355 0.55078,-0.043 0.0956,-0.007 0.34346,-0.0268 0.55078,-0.043 0.20732,-0.0162 0.45518,-0.0355 0.55078,-0.043 0.0956,-0.007 0.34346,-0.0268 0.55078,-0.043 0.20733,-0.0162 0.45518,-0.0355 0.55078,-0.043 0.49737,-0.0387 0.93579,-0.073 0.99996,-0.0781 0.0938,-0.008 0.0938,-0.008 0.0938,0.002 0,0.006 -0.004,0.008 -0.0244,0.01 -0.0134,0.001 -1.9624,0.15346 -4.33106,0.33806 -2.36865,0.1846 -4.31323,0.33641 -4.32128,0.33736 -0.0134,0.002 -0.0146,8.8e-4 -0.0146,-0.008 z"
           style="fill:#808080;fill-opacity:0.42745098;fill-rule:nonzero;stroke:none" />
        <path
           transform="matrix(1.4904532,0.14017995,-0.11337599,1.8428208,-139.29592,-416.10004)"
           inkscape:connector-curvature="0"
           id="path4953"
           d="m 491.87141,378.86193 c 0,-0.006 0.31738,-0.0317 4.32129,-0.34429 2.37671,-0.18556 4.33227,-0.33826 4.3457,-0.33933 0.0229,-0.002 0.0244,-0.001 0.0244,0.006 0,0.005 -0.002,0.008 -0.005,0.008 -0.003,0 -0.90689,0.0703 -2.00879,0.15631 -4.44406,0.34674 -6.66177,0.51947 -6.66933,0.51947 -0.005,0 -0.008,-0.003 -0.008,-0.007 z"
           style="fill:#808080;fill-opacity:0.42745098;fill-rule:nonzero;stroke:none" />
        <path
           transform="matrix(1.4904532,0.14017995,-0.11337599,1.8428208,-139.29592,-416.10004)"
           inkscape:connector-curvature="0"
           id="path4955"
           d="m 491.88801,378.88939 c -0.0166,-0.001 -0.019,-0.003 -0.0136,-0.0109 0.002,-0.002 0.29093,-0.0264 0.72162,-0.0598 0.76151,-0.059 3.66555,-0.28524 5.04687,-0.39313 2.4895,-0.19444 2.87888,-0.22464 2.89692,-0.22464 0.0229,0 0.0255,0.009 0.003,0.0109 -0.007,6.2e-4 -0.016,0.002 -0.0192,0.003 -0.003,0.001 -0.0151,0.002 -0.0263,0.002 -0.0112,-4.1e-4 -0.0225,5.6e-4 -0.0251,0.002 -0.003,0.002 -0.0139,0.002 -0.0251,0.002 -0.0112,-5.2e-4 -0.0214,6.8e-4 -0.0226,0.003 -0.001,0.002 -0.011,0.003 -0.0217,0.002 -0.0107,-0.001 -0.0226,-5.6e-4 -0.0265,0.001 -0.004,0.002 -0.0162,0.003 -0.0274,0.002 -0.0112,-4.1e-4 -0.0226,5.6e-4 -0.0251,0.002 -0.003,0.002 -0.014,0.002 -0.0254,0.002 -0.0114,-5.2e-4 -0.0228,3.4e-4 -0.0254,0.002 -0.003,0.002 -0.0149,0.002 -0.0274,0.002 -0.0125,-5.1e-4 -0.0228,5.1e-4 -0.0228,0.002 0,0.003 -0.0122,0.004 -0.0733,0.004 -0.0113,1.5e-4 -0.0226,0.002 -0.0251,0.003 -0.003,0.002 -0.0139,0.002 -0.0253,0.002 -0.0114,-5.3e-4 -0.0228,3.5e-4 -0.0254,0.002 -0.003,0.002 -0.014,0.002 -0.0254,0.002 -0.0114,-5.2e-4 -0.0228,3.6e-4 -0.0254,0.002 -0.003,0.002 -0.014,0.002 -0.0254,0.002 -0.0114,-5.3e-4 -0.0226,2.4e-4 -0.025,0.002 -0.004,0.003 -0.0344,0.005 -0.0746,0.005 -0.0122,1.1e-4 -0.0231,0.002 -0.0243,0.004 -0.001,0.002 -0.011,0.003 -0.0217,0.002 -0.0107,-0.001 -0.0226,-5.6e-4 -0.0265,0.001 -0.004,0.002 -0.0162,0.003 -0.0274,0.002 -0.0112,-4.1e-4 -0.0225,5.6e-4 -0.0251,0.002 -0.003,0.002 -0.014,0.002 -0.0254,0.002 -0.0114,-5.2e-4 -0.0228,3.5e-4 -0.0254,0.002 -0.003,0.002 -0.014,0.002 -0.0254,0.002 -0.0114,-5.3e-4 -0.0228,3.5e-4 -0.0254,0.002 -0.003,0.002 -0.0139,0.002 -0.0251,0.002 -0.0112,-5.2e-4 -0.0214,6.8e-4 -0.0226,0.003 -0.001,0.002 -0.011,0.003 -0.0217,0.002 -0.0107,-0.001 -0.0226,-5e-4 -0.0265,0.001 -0.004,0.002 -0.0169,0.003 -0.029,0.002 -0.0121,-5.2e-4 -0.0231,7e-4 -0.0243,0.003 -0.001,0.002 -0.011,0.003 -0.0217,0.002 -0.0107,-0.001 -0.0226,-5.6e-4 -0.0265,0.001 -0.004,0.002 -0.0162,0.003 -0.0274,0.002 -0.0112,-4.1e-4 -0.0226,5.6e-4 -0.0251,0.002 -0.003,0.002 -0.0139,0.002 -0.0251,0.002 -0.0112,-5.2e-4 -0.0214,6.8e-4 -0.0226,0.003 -0.001,0.002 -0.011,0.003 -0.0217,0.002 -0.0107,-0.001 -0.0226,-5e-4 -0.0265,0.001 -0.004,0.002 -0.0169,0.003 -0.029,0.002 -0.0121,-5.2e-4 -0.0231,7.1e-4 -0.0243,0.003 -0.001,0.002 -0.011,0.003 -0.0217,0.002 -0.0107,-0.001 -0.0226,-5e-4 -0.0265,0.001 -0.004,0.002 -0.0161,0.003 -0.0273,0.002 -0.0112,-5.4e-4 -0.0225,3.6e-4 -0.0251,0.002 -0.003,0.002 -0.014,0.003 -0.0252,0.002 -0.0112,-5.2e-4 -0.0214,6.8e-4 -0.0226,0.003 -0.001,0.002 -0.011,0.003 -0.0217,0.002 -0.0107,-0.001 -0.0226,-4.9e-4 -0.0265,0.001 -0.004,0.002 -0.0161,0.003 -0.0273,0.002 -0.0112,-5.4e-4 -0.0225,3.5e-4 -0.0251,0.002 -0.003,0.002 -0.0141,0.003 -0.0255,0.002 -0.0114,-5.3e-4 -0.0228,3.5e-4 -0.0254,0.002 -0.003,0.002 -0.014,0.002 -0.0254,0.002 -0.0114,-5.2e-4 -0.0228,3.7e-4 -0.0254,0.002 -0.003,0.002 -0.0145,0.003 -0.0264,0.004 -0.0119,3.7e-4 -0.034,0.002 -0.049,0.003 -0.015,0.001 -0.0366,0.002 -0.0479,0.002 -0.0113,9e-5 -0.0226,0.001 -0.0251,0.003 -0.002,0.002 -0.0146,0.002 -0.0269,0.002 -0.0123,-5e-4 -0.0234,7.1e-4 -0.0246,0.003 -0.001,0.002 -0.011,0.003 -0.0217,0.002 -0.0107,-0.001 -0.0226,-6.2e-4 -0.0265,9.1e-4 -0.007,0.003 -0.0378,0.005 -0.076,0.005 -0.0122,1.1e-4 -0.0231,0.002 -0.0243,0.004 -0.001,0.002 -0.011,0.003 -0.0217,0.002 -0.0107,-0.001 -0.0226,-5e-4 -0.0265,0.001 -0.004,0.002 -0.0169,0.003 -0.029,0.002 -0.0121,-5.2e-4 -0.0231,7.1e-4 -0.0243,0.003 -0.001,0.002 -0.011,0.003 -0.0218,0.002 -0.0107,-0.001 -0.0226,-5.7e-4 -0.0265,0.001 -0.004,0.002 -0.0169,0.003 -0.0291,0.002 -0.0121,-3.9e-4 -0.0231,9.4e-4 -0.0243,0.003 -0.001,0.002 -0.0101,0.003 -0.0197,0.002 -0.01,-0.001 -0.0206,-6.5e-4 -0.0245,9.5e-4 -0.007,0.003 -0.0352,0.005 -0.0799,0.005 -0.0122,1.4e-4 -0.0231,0.002 -0.0243,0.004 -0.001,0.002 -0.0109,0.003 -0.0217,0.002 -0.0107,-0.001 -0.0226,-5e-4 -0.0265,0.001 -0.004,0.002 -0.0169,0.003 -0.029,0.002 -0.0121,-5.2e-4 -0.0231,7.5e-4 -0.0244,0.003 -0.001,0.002 -0.0102,0.003 -0.0198,0.002 -0.01,-0.001 -0.0206,-6.5e-4 -0.0245,9.5e-4 -0.007,0.003 -0.0352,0.005 -0.0799,0.005 -0.0122,1.4e-4 -0.0231,0.002 -0.0243,0.004 -0.001,0.002 -0.0109,0.003 -0.0217,0.002 -0.0107,-0.001 -0.0226,-4.9e-4 -0.0265,0.001 -0.004,0.002 -0.0161,0.003 -0.0273,0.002 -0.0112,-5.4e-4 -0.0225,3.7e-4 -0.0252,0.002 -0.003,0.002 -0.0146,0.003 -0.0265,0.004 -0.0119,3.8e-4 -0.034,0.002 -0.049,0.003 -0.015,0.001 -0.0366,0.002 -0.0479,0.002 -0.0113,9e-5 -0.0226,0.001 -0.0251,0.003 -0.004,0.003 -0.0289,0.004 -0.0764,0.005 -0.0113,1.3e-4 -0.0224,0.001 -0.0247,0.003 -0.004,0.003 -0.0346,0.005 -0.0745,0.005 -0.0122,1.1e-4 -0.0231,0.002 -0.0243,0.004 -0.001,0.002 -0.011,0.003 -0.0217,0.002 -0.0107,-0.001 -0.0226,-5e-4 -0.0265,0.001 -0.004,0.002 -0.0169,0.003 -0.029,0.002 -0.0121,-5.2e-4 -0.0231,7.1e-4 -0.0243,0.003 -0.001,0.002 -0.011,0.003 -0.0218,0.002 -0.0107,-0.001 -0.0226,-4.9e-4 -0.0265,0.001 -0.004,0.002 -0.0161,0.003 -0.0273,0.002 -0.0112,-5.4e-4 -0.0225,3.7e-4 -0.0252,0.002 -0.005,0.003 -0.027,0.004 -0.0743,0.005 -0.0122,1.3e-4 -0.0231,0.002 -0.0243,0.004 -0.001,0.002 -0.0109,0.003 -0.0217,0.002 -0.0107,-0.001 -0.0226,-5e-4 -0.0265,0.001 -0.004,0.002 -0.0169,0.003 -0.029,0.002 -0.0121,-5.2e-4 -0.0231,7e-4 -0.0243,0.003 -0.001,0.002 -0.011,0.003 -0.0218,0.002 -0.0107,-0.001 -0.0226,-5.5e-4 -0.0265,0.001 -0.004,0.002 -0.0167,0.003 -0.0285,0.004 -0.0215,0.001 -0.0485,0.003 -0.0996,0.007 -0.015,0.001 -0.0373,0.002 -0.0494,0.002 -0.0122,10e-5 -0.0231,0.002 -0.0243,0.004 -0.001,0.002 -0.0109,0.003 -0.0217,0.002 -0.0107,-0.001 -0.0226,-5.6e-4 -0.0265,0.001 -0.004,0.002 -0.0167,0.003 -0.0285,0.004 -0.0217,0.001 -0.0496,0.003 -0.0996,0.007 -0.015,0.001 -0.0366,0.002 -0.0479,0.002 -0.0113,8e-5 -0.0226,0.001 -0.0251,0.003 -0.003,0.002 -0.0152,0.003 -0.0283,0.004 -0.013,3.9e-4 -0.0351,0.002 -0.0491,0.003 -0.014,0.001 -0.0368,0.003 -0.0508,0.004 -0.014,0.001 -0.0346,0.002 -0.0459,0.002 -0.0113,9e-5 -0.0227,0.002 -0.0254,0.003 -0.003,0.002 -0.0154,0.003 -0.0283,0.004 -0.0129,2.6e-4 -0.0357,0.001 -0.0508,0.003 -0.015,0.001 -0.0366,0.002 -0.0479,0.002 -0.0113,9e-5 -0.0226,0.001 -0.0252,0.003 -0.005,0.003 -0.0328,0.005 -0.0724,0.005 -0.0113,3e-5 -0.0226,0.001 -0.0251,0.003 -0.004,0.003 -0.0285,0.004 -0.078,0.005 -0.0122,1.5e-4 -0.0231,0.002 -0.0243,0.004 -0.001,0.002 -0.0109,0.003 -0.0217,0.002 -0.0107,-0.001 -0.0226,-5.6e-4 -0.0265,0.001 -0.004,0.002 -0.0167,0.003 -0.0285,0.004 -0.0217,0.001 -0.0496,0.003 -0.0996,0.007 -0.015,0.001 -0.0366,0.002 -0.0479,0.002 -0.0113,8e-5 -0.0226,0.001 -0.0251,0.003 -0.003,0.002 -0.0152,0.003 -0.0283,0.004 -0.013,3.9e-4 -0.0351,0.002 -0.0491,0.003 -0.0608,0.005 -0.0774,0.006 -0.0967,0.006 -0.0113,1e-5 -0.0227,0.001 -0.0254,0.003 -0.003,0.002 -0.0154,0.003 -0.0283,0.004 -0.022,4.5e-4 -0.0373,0.001 -0.0996,0.007 -0.0292,0.002 -0.0637,0.005 -0.0986,0.008 -0.0134,10e-4 -0.0367,0.003 -0.0518,0.004 -0.015,0.001 -0.0373,0.002 -0.0494,0.002 -0.0121,1e-5 -0.0231,0.002 -0.0243,0.004 -0.001,0.002 -0.011,0.003 -0.0217,0.002 -0.0107,-0.001 -0.0226,-5.6e-4 -0.0265,0.001 -0.004,0.002 -0.0167,0.003 -0.0285,0.004 -0.0205,9.9e-4 -0.0404,0.002 -0.0986,0.007 -0.0583,0.004 -0.10614,0.008 -0.15136,0.0119 -0.0653,0.005 -0.0775,0.006 -0.0967,0.006 -0.0113,1e-5 -0.0227,0.001 -0.0254,0.003 -0.003,0.002 -0.0154,0.003 -0.0283,0.004 -0.0232,6e-4 -0.0503,0.002 -0.0996,0.006 -0.0287,0.002 -0.0627,0.005 -0.0986,0.008 -0.0134,10e-4 -0.0367,0.003 -0.0518,0.004 -0.015,0.001 -0.0373,0.002 -0.0494,0.002 -0.0122,1e-5 -0.0231,0.002 -0.0243,0.004 -0.001,0.002 -0.011,0.003 -0.0217,0.002 -0.0107,-0.001 -0.0226,-5.6e-4 -0.0265,0.001 -0.004,0.002 -0.0167,0.003 -0.0285,0.004 -0.0118,5.7e-4 -0.0333,0.002 -0.0478,0.003 -0.0145,0.001 -0.0374,0.003 -0.0508,0.004 -0.0801,0.006 -0.10251,0.008 -0.15137,0.0118 -0.0292,0.002 -0.0637,0.005 -0.0986,0.008 -0.0134,10e-4 -0.0367,0.003 -0.0518,0.004 -0.015,0.001 -0.0379,0.003 -0.0508,0.004 -0.0129,9.6e-4 -0.0358,0.003 -0.0508,0.004 -0.0735,0.006 -0.0891,0.007 -0.14844,0.0118 -0.0656,0.005 -0.0795,0.006 -0.0987,0.006 -0.0113,10e-5 -0.0226,0.001 -0.0252,0.003 -0.003,0.002 -0.0144,0.003 -0.0263,0.004 -0.0119,4.4e-4 -0.0335,0.002 -0.048,0.003 -0.0145,0.001 -0.0374,0.003 -0.0508,0.004 -0.0801,0.006 -0.10251,0.008 -0.15137,0.0118 -0.0293,0.002 -0.0637,0.005 -0.0986,0.008 -0.0134,10e-4 -0.0367,0.003 -0.0518,0.004 -0.015,0.001 -0.0379,0.003 -0.0508,0.004 -0.0129,9.6e-4 -0.0357,0.003 -0.0508,0.004 -0.0735,0.006 -0.0891,0.007 -0.14843,0.0118 -0.0656,0.005 -0.0795,0.006 -0.0987,0.006 -0.0113,10e-5 -0.0226,0.001 -0.0252,0.003 -0.003,0.002 -0.0144,0.003 -0.0263,0.004 -0.0208,7.8e-4 -0.0493,0.003 -0.0998,0.007 -0.0129,0.001 -0.0358,0.003 -0.0508,0.004 -0.015,0.001 -0.0366,0.002 -0.0479,0.002 -0.0113,9e-5 -0.0226,0.001 -0.025,0.003 -0.002,0.002 -0.0152,0.003 -0.0283,0.004 -0.0131,5.2e-4 -0.0352,0.002 -0.0492,0.003 -0.014,0.001 -0.0368,0.003 -0.0508,0.004 -0.014,0.001 -0.0368,0.003 -0.0508,0.004 -0.014,0.001 -0.0359,0.003 -0.0488,0.004 -0.0129,9.7e-4 -0.0357,0.003 -0.0508,0.004 -0.0624,0.005 -0.0754,0.006 -0.0996,0.008 -0.0442,0.003 -0.0754,0.006 -0.10156,0.008 -0.014,0.001 -0.0346,0.002 -0.0459,0.002 -0.0113,1e-5 -0.0226,0.001 -0.0252,0.003 -0.003,0.002 -0.0144,0.003 -0.0263,0.004 -0.0426,0.002 -0.0726,0.004 -0.0783,0.006 -0.003,0.001 -0.0133,0.001 -0.0225,6.4e-4 z"
           style="fill:#808080;fill-opacity:0.42745098;fill-rule:nonzero;stroke:none" />
        <path
           transform="matrix(1.4904532,0.14017995,-0.11337599,1.8428208,-139.29592,-416.10004)"
           inkscape:connector-curvature="0"
           id="path4957"
           d="m 440.16573,382.814 c 0.42066,-0.40091 14.6003,-5.10285 17.74455,-5.88406 0.98351,-0.24435 1.93329,-0.48672 2.11063,-0.53859 0.30282,-0.0886 0.31948,0.0571 0.27408,2.39663 -0.0266,1.37001 -0.0583,2.49093 -0.0705,2.49093 -0.22991,0 -18.33942,1.43154 -19.08645,1.50877 -0.58277,0.0602 -1.02029,0.0721 -0.97227,0.0263 l 0,0 z"
           style="fill:#808080;fill-opacity:0.42745098;fill-rule:nonzero;stroke:none" />
        <path
           transform="matrix(1.4904532,0.14017995,-0.11337599,1.8428208,-139.29592,-416.10004)"
           inkscape:connector-curvature="0"
           id="path4959"
           d=""
           style="fill:#808080;fill-opacity:0.42745098;fill-rule:nonzero;stroke:none" />
        <path
           transform="matrix(1.4904532,0.14017995,-0.11337599,1.8428208,-139.29592,-416.10004)"
           inkscape:connector-curvature="0"
           id="path4961"
           d="m 460.31514,381.32146 0,-0.0176 0.0476,0 c 0.0875,0 0.78642,-0.0526 3.68673,-0.27748 1.07959,-0.0837 1.96421,-0.1522 1.96583,-0.1522 0.002,-10e-6 0.003,0.003 0.003,0.006 0,0.004 -0.006,0.006 -0.0166,0.008 -0.009,0.001 -0.59228,0.0471 -1.2959,0.1019 -2.2979,0.17908 -4.2033,0.3299 -4.29283,0.3398 -0.0483,0.005 -0.09,0.01 -0.0928,0.01 -0.003,0 -0.005,-0.006 -0.005,-0.0176 z"
           style="fill:#808080;fill-opacity:0.42745098;fill-rule:nonzero;stroke:none" />
        <path
           transform="matrix(1.4904532,0.14017995,-0.11337599,1.8428208,-139.29592,-416.10004)"
           inkscape:connector-curvature="0"
           id="path4963"
           d="m 457.32686,381.54216 c 0,-0.0236 0.002,-0.043 0.003,-0.043 0.002,0 0.44797,-0.0343 0.99121,-0.0762 1.08959,-0.084 1.53926,-0.11802 1.75701,-0.13279 0.14918,-0.0101 0.15029,-0.0103 0.15069,-0.0274 1e-4,-0.004 0.002,-0.0359 0.004,-0.0703 0.005,-0.0823 0.0217,-0.59909 0.0292,-0.89453 0.0123,-0.4868 0.0137,-0.54132 0.0161,-0.62793 l 0.002,-0.0889 0.0152,0 0.0152,0 0,0.88086 c 0,0.53686 0.001,0.88086 0.004,0.88086 0.002,0 0.0358,-0.003 0.0752,-0.008 0.096,-0.0103 0.316,-0.0286 0.82158,-0.0684 0.23204,-0.0183 0.52207,-0.0411 0.64454,-0.0507 1.35148,-0.10644 2.48516,-0.19523 3.76757,-0.29508 0.19229,-0.015 0.35972,-0.0283 0.37207,-0.0296 0.0222,-0.002 0.0225,-0.002 0.0225,0.008 0,0.007 -0.002,0.0102 -0.007,0.0102 -0.004,0 -1.95548,0.15204 -4.33691,0.33788 -2.38144,0.18583 -4.33384,0.33788 -4.33867,0.33789 -0.009,10e-6 -0.009,-0.001 -0.009,-0.043 z"
           style="fill:#808080;fill-opacity:0.42745098;fill-rule:nonzero;stroke:none" />
        <path
           transform="matrix(1.4904532,0.14017995,-0.11337599,1.8428208,-139.29592,-416.10004)"
           inkscape:connector-curvature="0"
           id="path4965"
           d="m 457.33012,381.57366 c -0.002,-0.006 -0.003,-0.0235 -0.001,-0.0415 l 0.003,-0.0315 1.10604,-0.0848 c 0.60833,-0.0467 1.24931,-0.0953 1.4244,-0.10813 0.1751,-0.0128 0.321,-0.024 0.32422,-0.0248 0.0314,-0.008 -0.30016,0.0161 -1.85904,0.13635 -0.54229,0.0418 -0.98921,0.076 -0.99316,0.076 -0.007,0 -0.007,-0.0311 -0.007,-0.95703 l 0,-0.95703 1.47515,0 1.47515,0 -0.003,0.10254 c -0.016,0.6193 -0.0218,0.86174 -0.0213,0.88965 8.3e-4,0.0491 0.009,-0.2152 0.0193,-0.62793 l 0.009,-0.36426 0.0128,0 0.0128,0 0,0.47006 c 0,0.25853 0.001,0.65508 0.003,0.88122 l 0.003,0.41117 0.0355,-0.003 c 0.0195,-0.002 0.036,-0.004 0.0367,-0.006 6.7e-4,-0.002 0.004,-0.002 0.007,-0.001 0.006,0.002 0.2416,-0.0174 0.25167,-0.021 0.003,-0.001 0.0142,-0.002 0.0243,-0.001 0.0102,4.2e-4 0.0206,-5.3e-4 0.0231,-0.002 0.003,-0.002 0.0149,-0.002 0.0274,-0.002 0.0125,5.1e-4 0.0228,-5.2e-4 0.0228,-0.002 0,-0.002 0.009,-0.003 0.0196,-0.002 0.0108,7.5e-4 0.0227,1.1e-4 0.0264,-0.001 0.004,-0.002 0.0169,-0.002 0.0292,-0.002 0.0123,4e-4 0.0225,-7.1e-4 0.0225,-0.002 -10e-6,-0.002 0.009,-0.003 0.0196,-0.002 0.0108,7.5e-4 0.0227,10e-5 0.0264,-0.001 0.004,-0.002 0.0168,-0.002 0.0292,-0.002 0.0124,4e-4 0.0225,-8.9e-4 0.0225,-0.003 0,-0.002 0.009,-0.003 0.0194,-0.002 0.0106,0.001 0.0225,4.8e-4 0.0264,-0.001 0.004,-0.002 0.0161,-0.003 0.0273,-0.002 0.0112,5.4e-4 0.0225,-3.6e-4 0.0251,-0.002 0.003,-0.002 0.014,-0.003 0.0252,-0.002 0.0112,5.2e-4 0.0214,-6.8e-4 0.0226,-0.003 0.001,-0.002 0.011,-0.003 0.0217,-0.002 0.0107,0.001 0.0226,5.6e-4 0.0265,-0.001 0.007,-0.003 0.0381,-0.005 0.0744,-0.005 0.0113,-3e-5 0.0226,-0.001 0.0252,-0.003 0.003,-0.002 0.0144,-0.003 0.0264,-0.004 0.0119,-4.5e-4 0.034,-0.002 0.049,-0.003 0.015,-0.001 0.0373,-0.002 0.0495,-0.002 0.0122,-1.1e-4 0.0231,-0.002 0.0243,-0.004 0.001,-0.002 0.011,-0.003 0.0217,-0.002 0.0107,0.001 0.0226,6.2e-4 0.0265,-9.1e-4 0.007,-0.003 0.0378,-0.005 0.076,-0.005 0.0122,-1.1e-4 0.0231,-0.002 0.0243,-0.004 0.001,-0.002 0.011,-0.003 0.0217,-0.002 0.0107,0.001 0.0226,5.6e-4 0.0265,-0.001 0.004,-0.002 0.0161,-0.003 0.0271,-0.002 0.0111,4.1e-4 0.0211,-8.8e-4 0.0224,-0.003 0.001,-0.002 0.011,-0.003 0.0217,-0.002 0.0107,0.001 0.0226,5.6e-4 0.0265,-0.001 0.004,-0.002 0.0162,-0.003 0.0274,-0.002 0.0112,4.2e-4 0.0225,-5.4e-4 0.0251,-0.002 0.003,-0.002 0.0149,-0.002 0.0274,-0.002 0.0125,5.1e-4 0.0228,-7e-4 0.0228,-0.003 0,-0.002 0.009,-0.003 0.0194,-0.002 0.0107,0.001 0.0225,5.5e-4 0.0264,-0.001 0.004,-0.002 0.0162,-0.003 0.0274,-0.002 0.0112,4.1e-4 0.0225,-5.6e-4 0.0251,-0.002 0.003,-0.002 0.014,-0.002 0.0254,-0.002 0.0114,5.3e-4 0.0228,-3.4e-4 0.0254,-0.002 0.003,-0.002 0.0149,-0.002 0.0274,-0.002 0.0125,5.1e-4 0.0228,-5.1e-4 0.0227,-0.002 0,-0.002 0.009,-0.003 0.0196,-0.002 0.0108,7.5e-4 0.0227,9e-5 0.0264,-0.001 0.004,-0.002 0.0159,-0.002 0.0272,-0.002 0.0112,4.2e-4 0.0225,-5.4e-4 0.0251,-0.002 0.003,-0.002 0.0149,-0.002 0.0274,-0.002 0.0125,5.1e-4 0.0228,-5.9e-4 0.0228,-0.002 0,-0.002 0.0114,-0.003 0.0254,-0.002 0.014,8.9e-4 0.0254,9e-5 0.0254,-0.002 0,-0.002 0.009,-0.003 0.0196,-0.002 0.0108,7.5e-4 0.0227,10e-5 0.0264,-0.001 0.004,-0.002 0.0169,-0.002 0.0292,-0.002 0.0124,4e-4 0.0225,-7.1e-4 0.0224,-0.002 0,-0.002 0.0114,-0.003 0.0254,-0.002 0.014,7.2e-4 0.0254,-1.6e-4 0.0254,-0.002 0,-0.002 0.0114,-0.003 0.0254,-0.002 0.014,7.2e-4 0.0254,-1.5e-4 0.0254,-0.002 0,-0.002 0.0114,-0.003 0.0254,-0.002 0.014,7.2e-4 0.0254,-1.6e-4 0.0254,-0.002 4e-5,-0.002 0.0216,-0.004 0.0478,-0.004 0.0263,-6.5e-4 0.0482,-0.002 0.0488,-0.004 5.3e-4,-0.002 0.0124,-0.002 0.0264,-0.001 0.014,7.2e-4 0.0254,-1.6e-4 0.0254,-0.002 0,-0.002 0.0114,-0.003 0.0254,-0.002 0.014,7.2e-4 0.0254,-1.6e-4 0.0254,-0.002 -1e-5,-0.002 0.0105,-0.003 0.0234,-0.002 0.0129,7.3e-4 0.0235,-1.5e-4 0.0234,-0.002 0,-0.002 0.0114,-0.003 0.0254,-0.002 0.014,7.2e-4 0.0254,-1.6e-4 0.0254,-0.002 0,-0.002 0.0114,-0.003 0.0254,-0.002 0.014,7.2e-4 0.0254,-1.5e-4 0.0254,-0.002 4e-5,-0.002 0.0216,-0.004 0.0479,-0.004 0.0263,-6e-4 0.0482,-0.002 0.0488,-0.004 5.3e-4,-0.002 0.0124,-0.002 0.0264,-0.002 0.014,7.2e-4 0.0254,-1.6e-4 0.0254,-0.002 0,-0.002 0.0114,-0.003 0.0254,-0.002 0.0172,8.9e-4 0.0254,-1.3e-4 0.0254,-0.003 0,-0.002 0.002,-0.003 0.004,-0.002 0.005,0.003 0.14415,-0.006 0.14414,-0.01 0,-0.001 0.0114,-0.002 0.0254,-0.001 0.0172,8.9e-4 0.0254,-1.2e-4 0.0254,-0.003 0,-0.002 0.002,-0.003 0.004,-0.002 0.006,0.004 0.14415,-0.006 0.14415,-0.0105 0,-0.002 0.003,-0.002 0.006,-9.1e-4 0.008,0.003 0.1933,-0.011 0.1933,-0.0148 0,-0.002 0.003,-0.002 0.006,-8.1e-4 0.008,0.003 0.24404,-0.0149 0.24404,-0.0188 0,-0.002 0.003,-0.002 0.006,-7.9e-4 0.008,0.003 0.1933,-0.011 0.1933,-0.0148 0,-0.002 0.003,-0.002 0.006,-8.3e-4 0.008,0.003 0.1933,-0.011 0.1933,-0.0148 0,-0.002 0.003,-0.002 0.006,-8.1e-4 0.008,0.003 0.24404,-0.0149 0.24404,-0.0187 0,-0.002 0.003,-0.002 0.006,-8e-4 0.008,0.003 0.1933,-0.011 0.1933,-0.0148 0,-0.002 0.003,-0.002 0.006,-8.3e-4 0.007,0.003 0.1933,-0.0107 0.19329,-0.0139 0,-0.001 0.0114,-0.002 0.0254,-9.4e-4 0.016,8.3e-4 0.0254,-2.1e-4 0.0254,-0.003 0,-0.002 0.003,-0.003 0.006,-0.002 0.008,0.003 0.1933,-0.011 0.1933,-0.0148 0,-0.002 0.003,-0.002 0.006,-8.3e-4 0.008,0.003 0.1933,-0.011 0.1933,-0.0148 0,-0.002 0.003,-0.002 0.006,-8.3e-4 0.008,0.003 0.19331,-0.011 0.19331,-0.0148 0,-0.002 0.003,-0.002 0.006,-8.3e-4 0.007,0.003 0.19329,-0.0107 0.19335,-0.0139 3e-5,-0.001 0.0215,-0.003 0.0478,-0.003 0.0263,-6e-4 0.0482,-0.002 0.0488,-0.004 5.3e-4,-0.002 0.0124,-0.002 0.0264,-0.002 0.014,7.2e-4 0.0254,-1.6e-4 0.0254,-0.002 0,-0.002 0.0114,-0.003 0.0254,-0.002 0.014,7.2e-4 0.0254,-1.6e-4 0.0254,-0.002 0,-0.002 0.009,-0.003 0.0196,-0.002 0.0108,7.5e-4 0.0227,1e-4 0.0264,-0.001 0.004,-0.002 0.0162,-0.002 0.0278,-0.002 0.0116,4.3e-4 0.0221,-6.8e-4 0.0234,-0.002 0.001,-0.002 0.0143,-0.003 0.029,-0.002 0.0223,0.001 0.0264,0.002 0.0254,0.008 -9.6e-4,0.005 -0.007,0.007 -0.0256,0.008 -0.0134,6.4e-4 -0.0244,0.002 -0.0244,0.004 0,0.002 -0.0114,0.002 -0.0254,0.001 -0.014,-7.2e-4 -0.0254,1.5e-4 -0.0254,0.002 0,0.002 -0.0114,0.003 -0.0254,0.002 -0.014,-7.2e-4 -0.0254,1.6e-4 -0.0254,0.002 0,0.002 -0.0114,0.003 -0.0254,0.002 -0.014,-7.2e-4 -0.0254,1.6e-4 -0.0254,0.002 0,0.002 -0.009,0.003 -0.0196,0.002 -0.0108,-7.4e-4 -0.0227,-1e-4 -0.0264,0.001 -0.004,0.002 -0.0169,0.002 -0.0292,0.002 -0.0124,-4e-4 -0.0225,7.1e-4 -0.0224,0.002 0,0.002 -0.0114,0.003 -0.0254,0.002 -0.014,-7.2e-4 -0.0254,1.6e-4 -0.0254,0.002 0,0.002 -0.0114,0.003 -0.0254,0.002 -0.014,-7.2e-4 -0.0254,1.6e-4 -0.0254,0.002 0,0.002 -0.0114,0.003 -0.0254,0.002 -0.014,-7.2e-4 -0.0254,1.6e-4 -0.0254,0.002 0,0.002 -0.0114,0.003 -0.0254,0.002 -0.014,-7.2e-4 -0.0254,1.5e-4 -0.0254,0.002 0,0.002 -0.0116,0.003 -0.0258,0.002 -0.0143,-7.3e-4 -0.0249,2.1e-4 -0.0237,0.002 0.001,0.002 -0.009,0.003 -0.023,0.002 -0.0138,-8.8e-4 -0.0251,-7e-5 -0.0251,0.002 0,0.002 -0.0114,0.003 -0.0254,0.002 -0.014,-7.2e-4 -0.0254,1.6e-4 -0.0254,0.002 0,0.002 -0.0114,0.003 -0.0254,0.002 -0.014,-7.2e-4 -0.0254,1.6e-4 -0.0254,0.002 0,0.002 -0.0114,0.003 -0.0254,0.002 -0.0172,-8.9e-4 -0.0254,1.3e-4 -0.0254,0.003 0,0.002 -0.002,0.003 -0.004,0.002 -0.005,-0.003 -0.14415,0.006 -0.14414,0.01 0,0.001 -0.0114,0.002 -0.0254,0.001 -0.014,-7.2e-4 -0.0254,1.6e-4 -0.0254,0.002 0,0.002 -0.0114,0.003 -0.0254,0.002 -0.014,-7.2e-4 -0.0254,1.6e-4 -0.0254,0.002 0,0.002 -0.0114,0.003 -0.0254,0.002 -0.0172,-8.8e-4 -0.0254,1.3e-4 -0.0254,0.003 0,0.002 -0.002,0.003 -0.004,0.002 -0.005,-0.003 -0.14415,0.006 -0.14414,0.01 0,0.001 -0.0114,0.002 -0.0254,0.001 -0.014,-7.2e-4 -0.0254,1.6e-4 -0.0254,0.002 0,0.002 -0.0114,0.003 -0.0254,0.002 -0.016,-8.3e-4 -0.0254,2.1e-4 -0.0254,0.003 0,0.002 -0.003,0.003 -0.006,0.002 -0.007,-0.003 -0.19331,0.0107 -0.1933,0.0139 0,0.001 -0.0114,0.002 -0.0254,9.4e-4 -0.016,-8.3e-4 -0.0254,2.1e-4 -0.0254,0.003 0,0.002 -0.003,0.003 -0.006,0.002 -0.007,-0.003 -0.24404,0.0147 -0.24403,0.0179 0,0.001 -0.0114,0.002 -0.0254,9e-4 -0.016,-8.2e-4 -0.0254,2.1e-4 -0.0254,0.003 0,0.002 -0.003,0.003 -0.006,0.002 -0.008,-0.003 -0.24404,0.015 -0.24404,0.0188 0,0.002 -0.003,0.002 -0.006,7.6e-4 -0.007,-0.003 -0.29239,0.0184 -0.29385,0.0219 -5.7e-4,0.001 -0.007,0.002 -0.0137,0.001 -0.007,-7.4e-4 -0.40726,0.0295 -0.88959,0.0671 -0.48232,0.0377 -1.88242,0.14668 -3.11132,0.24227 -1.22891,0.0956 -2.24026,0.1744 -2.24745,0.17512 -0.011,0.001 -0.0137,-2.5e-4 -0.0169,-0.009 z m 2.897,-0.30006 c 0.004,-0.009 0.01,-0.11174 0.009,-0.15136 -2.4e-4,-0.0172 -0.003,0.008 -0.005,0.0558 -0.003,0.0479 -0.006,0.0895 -0.007,0.0925 -0.001,0.003 -0.008,0.006 -0.015,0.007 l -0.0129,0.002 0.0142,6.2e-4 c 0.0103,4.6e-4 0.015,-0.001 0.0169,-0.006 l 0,0 z m 0.0128,-0.28305 c -7.6e-4,-0.0135 -0.001,-0.003 -0.001,0.0223 -1e-5,0.0258 6.1e-4,0.0368 0.001,0.0246 7.7e-4,-0.0123 7.8e-4,-0.0334 1e-5,-0.0469 l 0,0 z m 0.01,-0.2687 0.002,-0.11524 -0.005,0.13086 c -0.003,0.072 -0.005,0.15283 -0.005,0.17969 l 2.6e-4,0.0488 0.003,-0.0645 c 0.002,-0.0354 0.004,-0.1163 0.005,-0.17968 l 0,0 z"
           style="fill:#808080;fill-opacity:0.42745098;fill-rule:nonzero;stroke:none" />
        <path
           transform="matrix(1.4904532,0.14017995,-0.11337599,1.8428208,-139.29592,-416.10004)"
           inkscape:connector-curvature="0"
           id="path4969"
           d="m 440.35176,382.7884 c 0,-0.18575 11.14953,-3.94082 15.62519,-5.26243 2.03997,-0.60238 4.15074,-1.14651 4.21156,-1.08569 0.0278,0.0278 0.0506,0.74005 0.0506,1.58269 l 0,1.53206 -1.45841,0 -1.45841,0 0,0.97227 c 0,0.94932 -0.005,0.97228 -0.19887,0.9724 -0.23459,1.4e-4 -15.62902,1.20695 -16.30765,1.27839 -0.25522,0.0269 -0.46404,0.0315 -0.46404,0.0103 z"
           style="fill:#808080;fill-opacity:0.42745098;fill-rule:nonzero;stroke:none" />
        <path
           transform="matrix(1.4904532,0.14017995,-0.11337599,1.8428208,-139.29592,-416.10004)"
           inkscape:connector-curvature="0"
           id="path4971"
           d="m 460.2808,379.52108 c 0.002,-0.0614 0.0147,-0.65738 0.0233,-1.12512 l 0.005,-0.27344 5.7e-4,0.72713 5.7e-4,0.72713 -0.0158,0.002 -0.0158,0.002 0.002,-0.0587 0,0 z"
           style="fill:#808080;fill-opacity:0.42745098;fill-rule:nonzero;stroke:none" />
        <path
           transform="matrix(1.4904532,0.14017995,-0.11337599,1.8428208,-139.29592,-416.10004)"
           inkscape:connector-curvature="0"
           id="path4973"
           d="m 460.31416,378.68111 c -9.4e-4,-0.848 -0.002,-1.1039 -0.004,-0.91015 -0.005,0.40717 -0.0293,1.73603 -0.0333,1.78221 l -0.002,0.0244 -1.4743,9.9e-4 -1.4743,9.8e-4 0,-0.0107 0,-0.0107 1.45736,0 1.45737,0 -0.002,-1.12403 c -0.002,-1.06619 -0.003,-1.22797 -0.0145,-1.55175 -0.004,-0.12403 -0.0135,-0.29762 -0.0181,-0.34278 l -0.002,-0.0244 0.0274,0 0.0274,0 0.008,0.04 c 0.0135,0.0659 0.0156,0.0808 0.0238,0.16969 0.0121,0.13022 0.016,0.22292 0.019,0.44652 0.002,0.129 0.004,0.18914 0.005,0.16211 0.001,-0.0236 0.003,-0.1168 0.003,-0.20703 5.6e-4,-0.17424 0.006,-0.48376 0.0105,-0.56348 l 0.002,-0.0478 0.0201,0 0.0201,-1e-5 -0.001,0.0361 c -0.0253,0.88777 -0.0439,1.95033 -0.0514,2.92871 -0.002,0.30455 -0.003,0.1445 -0.004,-0.79883 z"
           style="fill:#808080;fill-opacity:0.42745098;fill-rule:nonzero;stroke:none" />
        <path
           transform="matrix(1.4904532,0.14017995,-0.11337599,1.8428208,-139.29592,-416.10004)"
           inkscape:connector-curvature="0"
           id="path5489"
           d="m 439.33914,382.97426 c 0.16993,-0.0668 2.07176,-0.76938 2.845,-1.05099 5.50537,-2.00504 10.58545,-3.68264 14.31891,-4.72855 0.48638,-0.13626 1.33509,-0.3658 1.39191,-0.37646 l 0.0389,-0.007 0,0.054 0,0.054 -0.3287,0.087 c -0.37992,0.1006 -1.2501,0.35131 -1.91968,0.5531 -3.15724,0.9515 -8.91637,2.83631 -12.45171,4.07512 -2.08983,0.73229 -3.12507,1.13543 -3.06593,1.19394 0.0237,0.0234 0.45277,0.0108 0.86175,-0.0255 0.78625,-0.0696 2.04881,-0.17297 4.46361,-0.36531 2.9301,-0.23338 3.55206,-0.28287 4.72877,-0.37624 0.69579,-0.0552 2.57763,-0.20335 4.18188,-0.32919 l 2.91681,-0.2288 0.003,0.0372 c 0.002,0.0205 0.002,0.0387 0,0.0405 -0.002,0.002 -4.02821,0.31698 -8.94729,0.7004 -4.91909,0.38342 -8.97363,0.69963 -9.01009,0.70268 -0.0654,0.005 -0.0658,0.005 -0.0276,-0.01 l 0,0 z"
           style="fill:#666666;fill-opacity:0.42745098;fill-rule:nonzero;stroke:none" />
        <path
           transform="matrix(1.4904532,0.14017995,-0.11337599,1.8428208,-139.29592,-416.10004)"
           inkscape:connector-curvature="0"
           id="path5491"
           d=""
           style="fill:#666666;fill-opacity:0.42745098;fill-rule:nonzero;stroke:none" />
      </g>
      <text
         xml:space="preserve"
         style="font-size:20px;font-style:normal;font-weight:normal;line-height:125%;letter-spacing:0px;word-spacing:0px;fill:#000000;fill-opacity:1;stroke:none;font-family:Sans"
         x="392.97037"
         y="570.02051"
         id="text3009"
         sodipodi:linespacing="125%"><tspan
           sodipodi:role="line"
           id="tspan3011"
           x="392.97037"
           y="570.02051">Z</tspan></text>
      <path
         style="fill:none;stroke:#000000;stroke-width:1.09008753px;stroke-linecap:butt;stroke-linejoin:miter;stroke-opacity:1;marker-end:url(#Arrow1Lend)"
         d="m 422.58598,410.9153 0,167.68533"
         id="path3012"
         inkscape:connector-curvature="0" />
      <path
         style="fill:none;stroke:#000000;stroke-width:1.09008753px;stroke-linecap:butt;stroke-linejoin:miter;stroke-opacity:1;marker-end:url(#Arrow1Lend);display:inline"
         d="m 421.8907,411.67291 199.25895,0"
         id="path3012-3"
         inkscape:connector-curvature="0" />
      <path
         style="fill:none;stroke:#00d300;stroke-width:1px;stroke-linecap:butt;stroke-linejoin:miter;stroke-opacity:1;marker-end:url(#Arrow1Lend-0ew)"
         d="M 422.12385,412.38856 633.251,381.12574"
         id="path4274"
         inkscape:connector-curvature="0" />
      <text
         xml:space="preserve"
         style="font-size:20px;font-style:normal;font-weight:normal;line-height:125%;letter-spacing:0px;word-spacing:0px;fill:#000000;fill-opacity:1;stroke:none;font-family:Sans"
         x="604.07123"
         y="442.23004"
         id="text3013"
         sodipodi:linespacing="125%"><tspan
           sodipodi:role="line"
           id="tspan3015"
           x="604.07123"
           y="442.23004">X</tspan></text>
      <path
         style="fill:#ff0000;fill-opacity:1;fill-rule:nonzero;stroke:#ff0000;stroke-width:1.18069744;stroke-miterlimit:4;stroke-opacity:1;stroke-dasharray:none;marker-end:url(#Arrow1Lend-0O)"
         d="M 422.53611,412.74233 412.11764,305.28395"
         id="path3019"
         inkscape:connector-curvature="0" />
      <path
         style="fill:#ff0000;fill-opacity:1;fill-rule:nonzero;stroke:#ff0000;stroke-width:1.11000001;stroke-miterlimit:4;stroke-opacity:1;stroke-dasharray:none;marker-end:url(#Arrow1Lend-0O);display:inline"
         d="M 421.58899,412.0807 319.20496,426.93237"
         id="path3019-3"
         inkscape:connector-curvature="0" />
      <path
         inkscape:connector-curvature="0"
         id="path4886"
         d="m 100.36724,493.68454 566.40182,-142.2263 3.03702,0 -4.55551,0"
         style="fill:#ff0000;stroke:#000000;stroke-width:0.59999999999999998;stroke-linecap:butt;stroke-linejoin:miter;stroke-opacity:0.5529412;stroke-miterlimit:4;stroke-dasharray:none;fill-opacity:1" />
      <path
         sodipodi:nodetypes="csc"
         inkscape:connector-curvature="0"
         id="path4894"
         d="m 567.5,410.93361 c 0,0 2.5,-2.85714 1.78572,-9.64286 -0.76712,-7.2877 -5.71428,-9.28572 -5.71428,-9.28572"
         style="fill:none;stroke:#000000;stroke-width:1px;stroke-linecap:butt;stroke-linejoin:miter;stroke-opacity:1" />
      <text
         sodipodi:linespacing="125%"
         id="text4896"
         y="403.43362"
         x="581.78571"
         style="font-size:20px;font-style:normal;font-weight:normal;line-height:125%;letter-spacing:0px;word-spacing:0px;fill:#000000;fill-opacity:1;stroke:none;font-family:Times New Roman;-inkscape-font-specification:Times New Roman"
         xml:space="preserve"><tspan
           y="403.43362"
           x="581.78571"
           id="tspan4898"
           sodipodi:role="line">γ</tspan></text>
      <text
         sodipodi:linespacing="125%"
         id="text4900"
         y="389.14789"
         x="648.57147"
         style="font-size:20px;font-style:normal;font-weight:normal;line-height:125%;letter-spacing:0px;word-spacing:0px;fill:#008f00;fill-opacity:0.66055047;stroke:none;font-family:Sans"
         xml:space="preserve"><tspan
           y="389.14789"
           x="648.57147"
           id="tspan4902"
           sodipodi:role="line">V</tspan></text>
      <path
         sodipodi:nodetypes="csc"
         inkscape:connector-curvature="0"
         id="path4894-2"
         d="m 596.00725,386.46933 c 0,0 2.5,-2.85714 1.78572,-9.64286 -0.76712,-7.2877 -2.67857,-7.67858 -2.67857,-7.67858"
         style="fill:none;stroke:#000000;stroke-width:1px;stroke-linecap:butt;stroke-linejoin:miter;stroke-opacity:1;display:inline" />
      <text
         sodipodi:linespacing="125%"
         id="text4929"
         y="380.93359"
         x="597.14282"
         style="font-size:20px;font-style:normal;font-weight:normal;line-height:125%;letter-spacing:0px;word-spacing:0px;fill:#000000;fill-opacity:1;stroke:none;font-family:Times New Roman;-inkscape-font-specification:Times New Roman"
         xml:space="preserve"><tspan
           y="380.93359"
           x="597.14282"
           id="tspan4931"
           sodipodi:role="line"> α</tspan></text>
      <text
         sodipodi:linespacing="125%"
         id="text4933"
         y="319.75793"
         x="430.34528"
         style="font-size:20px;font-style:normal;font-weight:normal;line-height:125%;letter-spacing:0px;word-spacing:0px;fill:#ff0000;fill-opacity:1;stroke:none;font-family:Sans"
         xml:space="preserve"><tspan
           y="319.75793"
           x="430.34528"
           id="tspan4935"
           sodipodi:role="line">L</tspan></text>
      <text
         sodipodi:linespacing="125%"
         id="text4937"
         y="413.22241"
         x="326.75897"
         style="font-size:20px;font-style:normal;font-weight:normal;line-height:125%;letter-spacing:0px;word-spacing:0px;fill:#ff0000;fill-opacity:1;stroke:none;font-family:Sans"
         xml:space="preserve"><tspan
           y="413.22241"
           x="326.75897"
           id="tspan4939"
           sodipodi:role="line">D</tspan></text>
    </g>
  </g>
</svg>
